<svg width="208" height="209" viewBox="0 0 208 209" fill="none" xmlns="http://www.w3.org/2000/svg">
<path d="M104 0.0515137L104.02 103.949L143.799 7.96801L104.058 103.965L177.539 30.5124L104.086 103.994L200.083 64.2522L104.102 104.031L208 104.052L104.102 104.072L200.083 143.851L104.086 104.109L177.539 177.59L104.058 104.138L143.799 200.135L104.02 104.154L104 208.052L103.98 104.154L64.2007 200.135L103.942 104.138L30.4609 177.59L103.914 104.109L7.9165 143.851L103.898 104.072L0 104.052L103.898 104.031L7.9165 64.2522L103.914 103.994L30.4609 30.5124L103.942 103.965L64.2007 7.96801L103.98 103.949L104 0.0515137Z" stroke="#1784F2" stroke-width="3"/>
</svg>
